# xmcd CD database file
# Generated: Mon Nov 3 09:04:14 2003 by KSCD
# 
# Track frame offsets:
#       150
#       20398
#       39146
#       56919
#       75917
#       95039
#       112789
#       131353
#       150557
#       170668
#       188743
#
# Disc length: 2785 seconds
#
# Revision: 1
# Processed by: cddbd v1.4PL0 Copyright (c) Steve Scherf et al.
# Submitted via: Kscd 1.3.3
#
DISCID=7a0adf0b
DTITLE=Khadja Nin - Sambolera
DYEAR=1900
DGENRE=
TTITLE0=
TTITLE1=Sina Mali, Sina Deni
TTITLE2=
TTITLE3=
TTITLE4=
TTITLE5=
TTITLE6=
TTITLE7=
TTITLE8=
TTITLE9=
TTITLE10=
EXTD=
EXTT0=
EXTT1=
EXTT2=
EXTT3=
EXTT4=
EXTT5=
EXTT6=
EXTT7=
EXTT8=
EXTT9=
EXTT10=
PLAYORDER=
